<svg width="25" height="25" viewBox="0 0 25 25" fill="none" xmlns="http://www.w3.org/2000/svg">
<g clip-path="url(#clip0_44_44)">
<mask id="mask0_44_44" style="mask-type:luminance" maskUnits="userSpaceOnUse" x="0" y="0" width="25" height="25">
<path d="M25 0H0V25H25V0Z" fill="white"/>
</mask>
<g mask="url(#mask0_44_44)">
<path d="M21.301 21.3016H17.5968V15.5005C17.5968 14.1172 17.5721 12.3364 15.6703 12.3364C13.741 12.3364 13.4458 13.8436 13.4458 15.3998V21.3012H9.74158V9.37181H13.2976V11.002H13.3474C14.0725 9.76229 15.4208 9.0218 16.856 9.07509C20.6104 9.07509 21.3026 11.5446 21.3026 14.7573L21.301 21.3016ZM5.56199 7.74115C4.3748 7.74137 3.41222 6.7791 3.412 5.59188C3.41179 4.40467 4.37403 3.44206 5.56122 3.44184C6.74841 3.44163 7.711 4.40389 7.71121 5.59111C7.71131 6.16124 7.48493 6.70804 7.08188 7.11126C6.67882 7.51447 6.1321 7.74104 5.56199 7.74115ZM7.4141 21.3016H3.70603V9.37181H7.4141V21.3016ZM23.1477 0.00186414H1.84465C0.837827 -0.00949818 0.0121657 0.797012 -0.00012207 1.80386V23.1958C0.011745 24.2031 0.837339 25.0104 1.84465 24.9999H23.1477C24.1571 25.0124 24.9859 24.2051 24.9999 23.1958V1.80231C24.9855 0.793478 24.1566 -0.0129845 23.1477 0.000158386" fill="black"/>
</g>
</g>
<defs>
<clipPath id="clip0_44_44">
<rect width="25" height="25" fill="white"/>
</clipPath>
</defs>
</svg>
