<svg width="25" height="21" viewBox="0 0 25 21" fill="none" xmlns="http://www.w3.org/2000/svg">
<g clip-path="url(#clip0_44_29)">
<mask id="mask0_44_29" style="mask-type:luminance" maskUnits="userSpaceOnUse" x="0" y="0" width="25" height="21">
<path d="M25 0H0V20.4102H25V0Z" fill="white"/>
</mask>
<g mask="url(#mask0_44_29)">
<path d="M25 2.48516C24.0802 2.89309 23.0916 3.1688 22.0541 3.2928C23.1131 2.65799 23.9264 1.65283 24.3093 0.455183C23.3184 1.04289 22.2206 1.46976 21.0523 1.69984C20.1167 0.702997 18.7837 0.0800781 17.3085 0.0800781C14.4759 0.0800781 12.1793 2.37653 12.1793 5.20902C12.1793 5.61101 12.2247 6.00248 12.3122 6.37785C8.04939 6.16397 4.27009 4.12201 1.74037 1.01894C1.29888 1.77647 1.04594 2.65753 1.04594 3.59749C1.04594 5.37691 1.95151 6.94683 3.32775 7.86657C2.48692 7.83996 1.69611 7.60925 1.00452 7.22509C1.00415 7.24649 1.00415 7.26798 1.00415 7.28956C1.00415 9.77463 2.77214 11.8477 5.11852 12.3189C4.68809 12.4361 4.23498 12.4987 3.76715 12.4987C3.43667 12.4987 3.11533 12.4666 2.80223 12.4067C3.45486 14.4445 5.34904 15.9273 7.59346 15.9688C5.83809 17.3444 3.6265 18.1643 1.22353 18.1643C0.809558 18.1643 0.401258 18.1401 0 18.0927C2.26983 19.548 4.96589 20.397 7.86239 20.397C17.2966 20.397 22.4555 12.5816 22.4555 5.80377C22.4555 5.58138 22.4505 5.36017 22.4406 5.14025C23.4427 4.4171 24.3123 3.51372 25 2.48516Z" fill="black"/>
</g>
</g>
<defs>
<clipPath id="clip0_44_29">
<rect width="25" height="20.4102" fill="white"/>
</clipPath>
</defs>
</svg>
